<?xml version="1.0" encoding="UTF-8"?>
<svg width="800px" height="600px" viewBox="0 0 800 600" version="1.1" xmlns="http://www.w3.org/2000/svg">
    <title>Developer Illustration</title>
    <g stroke="none" stroke-width="1" fill="none" fill-rule="evenodd">
        <!-- Laptop Base -->
        <rect fill="#2D3748" x="250" y="300" width="300" height="200" rx="10"/>
        <!-- Screen -->
        <rect fill="#4A5568" x="270" y="320" width="260" height="160" rx="5"/>
        <!-- Code Lines -->
        <g transform="translate(290, 340)" fill="#A0AEC0">
            <rect x="0" y="0" width="180" height="10" rx="2"/>
            <rect x="0" y="20" width="220" height="10" rx="2"/>
            <rect x="0" y="40" width="160" height="10" rx="2"/>
            <rect x="0" y="60" width="200" height="10" rx="2"/>
            <rect x="0" y="80" width="140" height="10" rx="2"/>
        </g>
        <!-- Person -->
        <g transform="translate(350, 100)">
            <!-- Head -->
            <circle fill="#FBD38D" cx="50" cy="50" r="40"/>
            <!-- Body -->
            <path d="M30,90 L70,90 L90,200 L10,200 Z" fill="#4299E1"/>
            <!-- Arms -->
            <path d="M70,100 L120,150" stroke="#4299E1" stroke-width="20" stroke-linecap="round"/>
            <path d="M30,100 L-20,150" stroke="#4299E1" stroke-width="20" stroke-linecap="round"/>
        </g>
    </g>
</svg> 